<svg width="58" height="45" viewBox="0 0 58 45" fill="none" xmlns="http://www.w3.org/2000/svg">
<circle cx="22.5482" cy="19.4499" r="6.2619" stroke="#353535" stroke-width="4"/>
<mask id="mask0_23_80" style="mask-type:alpha" maskUnits="userSpaceOnUse" x="0" y="0" width="46" height="45">
<mask id="path-2-inside-1_23_80" fill="white">
<ellipse cx="22.5911" cy="22.0317" rx="22.5911" ry="22.0317"/>
</mask>
<ellipse cx="22.5911" cy="22.0317" rx="22.5911" ry="22.0317" fill="white"/>
<path d="M3.18226 22.0317C3.18226 10.017 12.8709 2.06346 22.5911 2.06346V86.0635C57.2649 86.0635 87.1823 58.382 87.1823 22.0317H3.18226ZM22.5911 2.06346C32.3114 2.06346 42 10.017 42 22.0317H-42C-42 58.382 -12.0826 86.0635 22.5911 86.0635V2.06346ZM42 22.0317C42 34.0464 32.3114 42 22.5911 42V-42C-12.0826 -42 -42 -14.3185 -42 22.0317H42ZM22.5911 42C12.8709 42 3.18226 34.0464 3.18226 22.0317H87.1823C87.1823 -14.3185 57.2649 -42 22.5911 -42V42Z" fill="#353535" mask="url(#path-2-inside-1_23_80)"/>
</mask>
<g mask="url(#mask0_23_80)">
<path d="M13.6183 35.8876C13.6183 30.9558 17.6163 26.9578 22.5481 26.9578C27.4799 26.9578 31.4779 30.9558 31.4779 35.8876V43.0961H13.6183V35.8876Z" stroke="#353535" stroke-width="4"/>
</g>
<path d="M43.1823 22.0317C43.1823 33.048 34.0109 42.0635 22.5911 42.0635C11.1714 42.0635 2 33.048 2 22.0317C2 11.0155 11.1714 2 22.5911 2C34.0109 2 43.1823 11.0155 43.1823 22.0317Z" stroke="#353535" stroke-width="4"/>
<rect width="22.1205" height="4.91826" rx="1" transform="matrix(0.803633 -0.595126 -0.595126 -0.803633 37.7061 24.22)" fill="#353535"/>
<rect width="19.1389" height="1.58922" rx="0.794608" transform="matrix(0.803633 -0.595126 -0.595126 -0.803633 37.9456 21.6677)" fill="#BC954D"/>
<rect x="56.9786" y="9.93018" width="1.32921" height="4.89055" rx="0.664603" transform="rotate(143.478 56.9786 9.93018)" fill="#353535"/>
<path d="M32.1421 25.861C31.7158 25.9598 31.3773 25.5022 31.5964 25.1235L34.2268 20.5779C34.4071 20.2664 34.8475 20.2416 35.0616 20.5309L37.5473 23.8908C37.7614 24.1801 37.6089 24.594 37.2583 24.6753L32.1421 25.861Z" fill="#353535"/>
</svg>
