<svg width="46" height="45" viewBox="0 0 46 45" fill="none" xmlns="http://www.w3.org/2000/svg">
<circle cx="22.5482" cy="19.4499" r="6.2619" stroke="#353535" stroke-width="4"/>
<mask id="mask0_23_38" style="mask-type:alpha" maskUnits="userSpaceOnUse" x="0" y="0" width="46" height="45">
<mask id="path-2-inside-1_23_38" fill="white">
<ellipse cx="22.5911" cy="22.0317" rx="22.5911" ry="22.0317"/>
</mask>
<ellipse cx="22.5911" cy="22.0317" rx="22.5911" ry="22.0317" fill="white"/>
<path d="M3.18226 22.0317C3.18226 10.017 12.8709 2.06346 22.5911 2.06346V86.0635C57.2649 86.0635 87.1823 58.382 87.1823 22.0317H3.18226ZM22.5911 2.06346C32.3114 2.06346 42 10.017 42 22.0317H-42C-42 58.382 -12.0826 86.0635 22.5911 86.0635V2.06346ZM42 22.0317C42 34.0464 32.3114 42 22.5911 42V-42C-12.0826 -42 -42 -14.3185 -42 22.0317H42ZM22.5911 42C12.8709 42 3.18226 34.0464 3.18226 22.0317H87.1823C87.1823 -14.3185 57.2649 -42 22.5911 -42V42Z" fill="#353535" mask="url(#path-2-inside-1_23_38)"/>
</mask>
<g mask="url(#mask0_23_38)">
<path d="M31.4779 35.8876V43.0961H13.6183V35.8876C13.6183 30.9558 17.6163 26.9578 22.5481 26.9578C27.4799 26.9578 31.4779 30.9558 31.4779 35.8876Z" stroke="#353535" stroke-width="4"/>
</g>
<path d="M43.1823 22.0317C43.1823 33.048 34.0109 42.0635 22.5911 42.0635C11.1714 42.0635 2 33.048 2 22.0317C2 11.0155 11.1714 2 22.5911 2C34.0109 2 43.1823 11.0155 43.1823 22.0317Z" stroke="#353535" stroke-width="4"/>
</svg>
