<svg width="54" height="42" viewBox="0 0 54 42" fill="none" xmlns="http://www.w3.org/2000/svg">
<path fill-rule="evenodd" clip-rule="evenodd" d="M35.9512 29.6103C33.0414 34.6263 27.6129 37.9997 21.3965 37.9997C12.11 37.9997 4.58191 30.4716 4.58191 21.1852C4.58191 11.8987 12.11 4.37061 21.3965 4.37061C27.613 4.37061 33.0416 7.74416 35.9514 12.7604H40.4355C37.2012 5.46198 29.8934 0.370605 21.3965 0.370605C9.90091 0.370605 0.581909 9.6896 0.581909 21.1852C0.581909 32.6807 9.90091 41.9997 21.3965 41.9997C29.8933 41.9997 37.201 36.9085 40.4354 29.6103H35.9512Z" fill="#353535"/>
<path d="M53.4236 21.1851L44.2243 31.0028L44.2243 11.3674L53.4236 21.1851Z" fill="#353535"/>
<rect x="23.5027" y="17.5923" width="23.7881" height="7.43377" fill="#353535"/>
</svg>
