<svg width="650" height="512" viewBox="0 0 650 512" fill="none" xmlns="http://www.w3.org/2000/svg">
<path fill-rule="evenodd" clip-rule="evenodd" d="M454.445 360C416.98 431.341 342.172 480 256 480C132.288 480 32 379.712 32 256C32 132.288 132.288 32 256 32C341.769 32 416.28 80.2049 453.917 151H489.545C449.459 61.9767 359.967 0 256 0C114.615 0 0 114.615 0 256C0 397.385 114.615 512 256 512C360.356 512 450.128 449.559 489.993 360H454.445Z" fill="#A4A4A4"/>
<path d="M649.904 256L536.761 376.748L536.761 135.251L649.904 256Z" fill="#A4A4A4"/>
<rect x="281.905" y="211.811" width="292.571" height="91.4286" fill="#A4A4A4"/>
</svg>
