<svg width="208" height="208" viewBox="0 0 208 208" fill="none" xmlns="http://www.w3.org/2000/svg">
<path d="M79.1981 76.2952L203.48 191.214C205.308 194.465 207.867 201.944 203.48 205.846C199.094 209.747 191.905 207.471 188.859 205.846C152.305 166.93 77.7359 87.6956 71.8874 82.0868C68.5366 84.8302 44.4722 98.8522 19.7986 68.6745C-4.87508 38.4969 1.52179 13.1965 6.09098 9.23374C10.6602 5.27102 31.9831 -3.5689 65.7951 22.0364C92.8447 42.5206 86.0011 66.744 79.1981 76.2952Z" fill="#BC9B5D"/>
<path d="M125.039 78.0749L1.85752 191.366C-0.0906056 193.764 -1.43931 200.807 2.75666 205.303C8.39124 210.458 15.1947 206.951 17.8921 204.553C52.8585 167.189 124.32 90.7827 130.434 84.0692C137.621 88.415 147.517 87.6657 155.46 82.5706C161.814 78.4945 171.994 66.6859 176.29 61.2911L207.55 21.879L207.7 21.2795L207.76 20.83L159.506 69.2334L156.509 66.2363L200.866 13.7867L150.664 60.3919L147.517 57.6945L193.973 6.89337L142.273 51.5504L139.275 48.7032L186.48 0C186.48 0 186.236 0.0503379 186.121 0.149856C186.016 0.240712 185.938 0.332595 185.821 0.449568C167.209 19.0393 133.731 43.1585 133.731 43.1585C130.584 45.3064 123.87 52.0899 122.192 62.0403C120.513 71.9908 123.391 76.8761 125.039 78.0749Z" fill="#BC9B5D"/>
</svg>
